<svg version="1.2" xmlns="http://www.w3.org/2000/svg" viewBox="0 0 134 17" width="134" height="17">
	<title>logo</title>
	<style>
		.s0 { fill: #ffffff } 
	</style>
	<path id="Vector" fill-rule="evenodd" class="s0" d="m35.4 8.2v2.3c0 1.5-1 2.1-3.2 2.1h-8.6l-0.3 0.2v3.9h-3.2v-10.2l0.4-0.3h11.7c2.2 0 3.2 0.5 3.2 2zm-3.2 1.7v-1.1c0-0.7-0.5-0.8-1.5-0.8h-7.1l-0.3 0.3v2.1l0.4 0.3h7c1 0 1.5-0.1 1.5-0.8zm10.8-3.8l8.1 10.6h-3.7l-1.4-1.9l-0.7-0.4h-9.2l1.6-1.9h6.2l0.1-0.4l-2.7-4zm35.4 8.8h10.8v1.8h-14.5v-7h9.9v1.8h-6.2l-0.4 0.3v2.9zm-3.6-8.7h14.6v1.9h-14.6zm-16.7 2.2v6.1l0.4 0.3h11.7c-0.1 1.5-1 2-3.4 2h-8.5c-2.6 0-3.5-0.6-3.5-2.5v-5.6c0-2 0.9-2.5 3.5-2.5h8.5c2.3 0 3.3 0.4 3.5 1.9h-11.8zm-42.4 4.5v1.4c0 2-0.9 2.5-3.6 2.5h-8.7c-2.3 0-3.3-0.4-3.5-1.8c0 0 0.3-0.2 0.3-0.2h12.4l0.2-0.3v-1.8l-0.3-0.3h-8.5c-2.7 0-3.5-0.5-3.5-2.5v-1.2c0-2 0.8-2.5 3.5-2.5h8c1.9 0 2.9 0.5 3.3 1.5l-0.2 0.4h-11.5l-0.2 0.2v1.8l0.2 0.3h8.5c2.7 0 3.6 0.5 3.6 2.5zm86.4-4c-1.2 0.5-2.3 1.1-3.3 1.7l-5.4-3.9l0.3-0.5h4.8zm0.8 4.6c0.9-0.7 1.8-1.4 2.8-2.1l7 5l-0.2 0.5h-4.9l-4.7-3.4zm-5 3.4h-4.4l-0.4-0.6c3-2.8 16.2-14.8 44.8-16.1c-2.4 0.1-24.8 1.7-40 16.7zm40-16.7q0.2 0 0.2 0q-0.1 0-0.2 0z" />
</svg>